<svg width="54" height="86" viewBox="0 0 54 86" fill="none" xmlns="http://www.w3.org/2000/svg">
<path d="M51.7328 2.10565C53.2443 3.50936 54 5.29588 54 7.46524C54 9.63461 53.2443 11.4211 51.7328 12.8248L19.5802 42.6855L51.7328 72.5461C53.2443 73.9498 54 75.7363 54 77.9057C54 80.0751 53.2443 81.8616 51.7328 83.2653C50.2214 84.669 48.2977 85.3708 45.9618 85.3708C43.626 85.3708 41.7023 84.669 40.1908 83.2653L2.26718 48.0451C1.44276 47.2794 0.85741 46.45 0.51115 45.5567C0.170387 44.6634 2.81443e-06 43.7063 2.81443e-06 42.6855C2.81443e-06 41.6646 0.170387 40.7075 0.51115 39.8143C0.85741 38.921 1.44276 38.0915 2.26718 37.3259L40.1908 2.10565C41.7023 0.701949 43.626 8.48828e-05 45.9618 8.48828e-05C48.2977 8.48828e-05 50.2214 0.701949 51.7328 2.10565V2.10565Z" fill="white"/>
</svg>
