<svg width="54" height="86" viewBox="0 0 54 86" fill="none" xmlns="http://www.w3.org/2000/svg">
<path d="M2.26717 83.2652C0.755722 81.8615 0 80.075 0 77.9056C0 75.7362 0.755722 73.9497 2.26717 72.546L34.4198 42.6854L2.26717 12.8248C0.755722 11.4211 0 9.63452 0 7.46516C0 5.29579 0.755722 3.50926 2.26717 2.10555C3.77862 0.701849 5.70228 0 8.03816 0C10.374 0 12.2977 0.701849 13.8092 2.10555L51.7328 37.3258C52.5572 38.0914 53.1426 38.9209 53.4888 39.8142C53.8296 40.7074 54 41.6645 54 42.6854C54 43.7063 53.8296 44.6633 53.4888 45.5566C53.1426 46.4499 52.5572 47.2793 51.7328 48.045L13.8092 83.2652C12.2977 84.6689 10.374 85.3708 8.03816 85.3708C5.70228 85.3708 3.77862 84.6689 2.26717 83.2652V83.2652Z" fill="white"/>
</svg>
